<svg width="197" height="48" viewBox="0 0 197 48" fill="none" xmlns="http://www.w3.org/2000/svg">
<path d="M43.9099 31.0101H35.5699L34.1899 35.0001H29.7799L37.3099 14.0301H42.1999L49.7299 35.0001H45.2899L43.9099 31.0101ZM42.7699 27.6501L39.7399 18.8901L36.7099 27.6501H42.7699ZM51.4645 26.6301C51.4645 24.9501 51.7945 23.4601 52.4545 22.1601C53.1345 20.8601 54.0545 19.8601 55.2145 19.1601C56.3745 18.4601 57.6645 18.1101 59.0845 18.1101C60.1645 18.1101 61.1945 18.3501 62.1745 18.8301C63.1545 19.2901 63.9345 19.9101 64.5145 20.6901V12.8001H68.7745V35.0001H64.5145V32.5401C63.9945 33.3601 63.2645 34.0201 62.3245 34.5201C61.3845 35.0201 60.2945 35.2701 59.0545 35.2701C57.6545 35.2701 56.3745 34.9101 55.2145 34.1901C54.0545 33.4701 53.1345 32.4601 52.4545 31.1601C51.7945 29.8401 51.4645 28.3301 51.4645 26.6301ZM64.5445 26.6901C64.5445 25.6701 64.3445 24.8001 63.9445 24.0801C63.5445 23.3401 63.0045 22.7801 62.3245 22.4001C61.6445 22.0001 60.9145 21.8001 60.1345 21.8001C59.3545 21.8001 58.6345 21.9901 57.9745 22.3701C57.3145 22.7501 56.7745 23.3101 56.3545 24.0501C55.9545 24.7701 55.7545 25.6301 55.7545 26.6301C55.7545 27.6301 55.9545 28.5101 56.3545 29.2701C56.7745 30.0101 57.3145 30.5801 57.9745 30.9801C58.6545 31.3801 59.3745 31.5801 60.1345 31.5801C60.9145 31.5801 61.6445 31.3901 62.3245 31.0101C63.0045 30.6101 63.5445 30.0501 63.9445 29.3301C64.3445 28.5901 64.5445 27.7101 64.5445 26.6901ZM80.2565 35.2701C78.6565 35.2701 77.2165 34.9201 75.9365 34.2201C74.6565 33.5001 73.6465 32.4901 72.9065 31.1901C72.1865 29.8901 71.8265 28.3901 71.8265 26.6901C71.8265 24.9901 72.1965 23.4901 72.9365 22.1901C73.6965 20.8901 74.7265 19.8901 76.0265 19.1901C77.3265 18.4701 78.7765 18.1101 80.3765 18.1101C81.9765 18.1101 83.4265 18.4701 84.7265 19.1901C86.0265 19.8901 87.0465 20.8901 87.7865 22.1901C88.5465 23.4901 88.9265 24.9901 88.9265 26.6901C88.9265 28.3901 88.5365 29.8901 87.7565 31.1901C86.9965 32.4901 85.9565 33.5001 84.6365 34.2201C83.3365 34.9201 81.8765 35.2701 80.2565 35.2701ZM80.2565 31.6101C81.0165 31.6101 81.7265 31.4301 82.3865 31.0701C83.0665 30.6901 83.6065 30.1301 84.0065 29.3901C84.4065 28.6501 84.6065 27.7501 84.6065 26.6901C84.6065 25.1101 84.1865 23.9001 83.3465 23.0601C82.5265 22.2001 81.5165 21.7701 80.3165 21.7701C79.1165 21.7701 78.1065 22.2001 77.2865 23.0601C76.4865 23.9001 76.0865 25.1101 76.0865 26.6901C76.0865 28.2701 76.4765 29.4901 77.2565 30.3501C78.0565 31.1901 79.0565 31.6101 80.2565 31.6101ZM96.8974 21.8301V29.8701C96.8974 30.4301 97.0274 30.8401 97.2874 31.1001C97.5674 31.3401 98.0274 31.4601 98.6674 31.4601H100.617V35.0001H97.9774C94.4374 35.0001 92.6674 33.2801 92.6674 29.8401V21.8301H90.6874V18.3801H92.6674V14.2701H96.8974V18.3801H100.617V21.8301H96.8974ZM119.088 26.3301C119.088 26.9301 119.048 27.4701 118.968 27.9501H106.818C106.918 29.1501 107.338 30.0901 108.078 30.7701C108.818 31.4501 109.728 31.7901 110.808 31.7901C112.368 31.7901 113.478 31.1201 114.138 29.7801H118.668C118.188 31.3801 117.268 32.7001 115.908 33.7401C114.548 34.7601 112.878 35.2701 110.898 35.2701C109.298 35.2701 107.858 34.9201 106.578 34.2201C105.318 33.5001 104.328 32.4901 103.608 31.1901C102.908 29.8901 102.558 28.3901 102.558 26.6901C102.558 24.9701 102.908 23.4601 103.608 22.1601C104.308 20.8601 105.288 19.8601 106.548 19.1601C107.808 18.4601 109.258 18.1101 110.898 18.1101C112.478 18.1101 113.888 18.4501 115.128 19.1301C116.388 19.8101 117.358 20.7801 118.038 22.0401C118.738 23.2801 119.088 24.7101 119.088 26.3301ZM114.738 25.1301C114.718 24.0501 114.328 23.1901 113.568 22.5501C112.808 21.8901 111.878 21.5601 110.778 21.5601C109.738 21.5601 108.858 21.8801 108.138 22.5201C107.438 23.1401 107.008 24.0101 106.848 25.1301H114.738ZM128.222 26.6301C128.222 24.9501 128.552 23.4601 129.212 22.1601C129.892 20.8601 130.802 19.8601 131.942 19.1601C133.102 18.4601 134.392 18.1101 135.812 18.1101C137.052 18.1101 138.132 18.3601 139.052 18.8601C139.992 19.3601 140.742 19.9901 141.302 20.7501V18.3801H145.532V35.0001H141.302V32.5701C140.762 33.3501 140.012 34.0001 139.052 34.5201C138.112 35.0201 137.022 35.2701 135.782 35.2701C134.382 35.2701 133.102 34.9101 131.942 34.1901C130.802 33.4701 129.892 32.4601 129.212 31.1601C128.552 29.8401 128.222 28.3301 128.222 26.6301ZM141.302 26.6901C141.302 25.6701 141.102 24.8001 140.702 24.0801C140.302 23.3401 139.762 22.7801 139.082 22.4001C138.402 22.0001 137.672 21.8001 136.892 21.8001C136.112 21.8001 135.392 21.9901 134.732 22.3701C134.072 22.7501 133.532 23.3101 133.112 24.0501C132.712 24.7701 132.512 25.6301 132.512 26.6301C132.512 27.6301 132.712 28.5101 133.112 29.2701C133.532 30.0101 134.072 30.5801 134.732 30.9801C135.412 31.3801 136.132 31.5801 136.892 31.5801C137.672 31.5801 138.402 31.3901 139.082 31.0101C139.762 30.6101 140.302 30.0501 140.702 29.3301C141.102 28.5901 141.302 27.7101 141.302 26.6901ZM148.554 26.6601C148.554 25.0001 148.894 23.5301 149.574 22.2501C150.274 20.9501 151.214 19.9401 152.394 19.2201C153.574 18.5001 154.874 18.1401 156.294 18.1401C157.474 18.1401 158.514 18.3701 159.414 18.8301C160.334 19.2701 161.074 19.8401 161.634 20.5401V18.3801H165.864V42.9201H161.634V32.7201C161.074 33.4401 160.324 34.0401 159.384 34.5201C158.444 35.0001 157.384 35.2401 156.204 35.2401C154.804 35.2401 153.514 34.8801 152.334 34.1601C151.174 33.4201 150.254 32.4001 149.574 31.1001C148.894 29.8001 148.554 28.3201 148.554 26.6601ZM161.634 26.6901C161.634 25.6701 161.424 24.7901 161.004 24.0501C160.584 23.3101 160.034 22.7501 159.354 22.3701C158.694 21.9901 157.984 21.8001 157.224 21.8001C156.484 21.8001 155.774 21.9901 155.094 22.3701C154.434 22.7501 153.894 23.3101 153.474 24.0501C153.054 24.7701 152.844 25.6401 152.844 26.6601C152.844 27.6801 153.054 28.5701 153.474 29.3301C153.894 30.0701 154.434 30.6301 155.094 31.0101C155.774 31.3901 156.484 31.5801 157.224 31.5801C157.984 31.5801 158.694 31.3901 159.354 31.0101C160.034 30.6301 160.584 30.0701 161.004 29.3301C161.424 28.5901 161.634 27.7101 161.634 26.6901ZM185.656 18.3801V35.0001H181.426V32.9001C180.886 33.6201 180.176 34.1901 179.296 34.6101C178.436 35.0101 177.496 35.2101 176.476 35.2101C175.176 35.2101 174.026 34.9401 173.026 34.4001C172.026 33.8401 171.236 33.0301 170.656 31.9701C170.096 30.8901 169.816 29.6101 169.816 28.1301V18.3801H174.016V27.5301C174.016 28.8501 174.346 29.8701 175.006 30.5901C175.666 31.2901 176.566 31.6401 177.706 31.6401C178.866 31.6401 179.776 31.2901 180.436 30.5901C181.096 29.8701 181.426 28.8501 181.426 27.5301V18.3801H185.656ZM191.93 16.4001C191.19 16.4001 190.57 16.1701 190.07 15.7101C189.59 15.2301 189.35 14.6401 189.35 13.9401C189.35 13.2401 189.59 12.6601 190.07 12.2001C190.57 11.7201 191.19 11.4801 191.93 11.4801C192.67 11.4801 193.28 11.7201 193.76 12.2001C194.26 12.6601 194.51 13.2401 194.51 13.9401C194.51 14.6401 194.26 15.2301 193.76 15.7101C193.28 16.1701 192.67 16.4001 191.93 16.4001ZM194 18.3801V35.0001H189.8V18.3801H194Z" fill="#F2D64B"/>
<path fill-rule="evenodd" clip-rule="evenodd" d="M24.8 3.2017C24.9418 3.42157 25.3734 3.73558 25.6754 3.8387C25.8392 3.89468 26.2081 3.91431 26.8725 3.90252C28.8926 3.86653 28.9857 3.87654 29.0973 4.14091C29.162 4.29414 29.1499 4.36008 28.9137 5.13888C28.7745 5.5975 28.6003 6.09714 28.5266 6.24918C28.3461 6.62113 27.8348 6.97985 27.3328 7.08661C26.4119 7.28248 25.751 7.54135 25.1696 7.93384L24.5974 8.32014L24.5328 8.87943C24.4601 9.50813 24.4841 9.74877 24.6589 10.1441C24.7868 10.4334 25.0363 11.291 25.0221 11.3927C25.005 11.516 25.2367 11.8482 25.5681 12.1757C25.7967 12.4014 25.9668 12.6407 26.0812 12.8975C26.1753 13.1088 26.4438 13.5141 26.6778 13.7982C27.0027 14.1927 27.1424 14.4235 27.2682 14.7739C27.5657 15.6023 27.9028 15.9446 28.5287 16.0538C29.4406 16.2129 30.3985 16.1337 31.435 15.8135C32.2358 15.5661 32.7585 15.4984 33.7946 15.5079C34.7939 15.517 35.2224 15.4796 35.6465 15.3461C36.0266 15.2265 36.1969 15.0833 36.4392 14.6794C36.6995 14.2456 36.9429 14.0171 37.3099 13.8618C37.6335 13.7249 37.7276 13.7182 37.6575 13.8369C37.6315 13.8808 37.6296 13.9341 37.6531 13.9553C37.6767 13.9766 37.6978 14.1682 37.7001 14.3811C37.7034 14.6916 37.6819 14.8096 37.5914 14.9775C37.5294 15.0926 37.4588 15.3398 37.4345 15.5268C37.3762 15.9756 37.1612 16.3697 36.8438 16.609C36.6121 16.7838 36.5638 16.7961 36.2942 16.7491C36.1316 16.7207 35.8037 16.7175 35.5655 16.7419C35.3273 16.7663 35.0804 16.7774 35.0167 16.7667C34.9531 16.7559 34.7543 16.7876 34.5749 16.8372C34.3111 16.9101 34.2363 16.9598 34.1836 17.0968C34.0839 17.3563 33.9727 17.3959 33.7231 17.2606C33.6035 17.1958 33.4285 17.149 33.3166 17.1521C33.2086 17.155 32.584 17.3427 31.9286 17.5691C31.2732 17.7956 30.5331 18.0491 30.2841 18.1325C29.9887 18.2314 29.8531 18.3042 29.894 18.342C29.9284 18.3738 30.2855 18.4577 30.6876 18.5283C31.1421 18.6082 31.7069 18.755 32.1801 18.9163C33.1176 19.2358 33.7992 19.3365 34.1835 19.2126C34.3344 19.1639 34.5904 18.9931 34.8014 18.8003C35.1754 18.4586 35.5199 18.2694 35.8049 18.2495C35.9654 18.2382 35.9678 18.2424 35.8772 18.3766C35.8101 18.476 35.7972 18.5398 35.8318 18.6015C35.8856 18.6972 35.7889 19.2278 35.6995 19.3277C35.668 19.3629 35.6431 19.4803 35.6441 19.5885C35.6468 19.8674 35.5187 20.0521 35.1229 20.3401L34.7777 20.5913L33.7047 20.4434C32.414 20.2654 32.1929 20.2768 32.1499 20.5234C32.1109 20.747 31.9669 20.7389 31.7175 20.4991C31.4518 20.2436 31.4307 20.2393 29.955 20.142C29.6067 20.119 28.5452 19.9826 27.5961 19.8389L25.8705 19.5776L25.4791 20.217C24.4992 21.8183 23.0823 23.0562 20.9475 24.1763C20.6352 24.3402 20.2475 24.5861 20.086 24.7227C19.8243 24.9442 19.4742 25.1553 17.8722 26.0578C17.1964 26.4385 17.0663 26.5369 16.8951 26.7965C16.8074 26.9296 16.6554 27.1153 16.5574 27.2092C16.4594 27.303 16.2033 27.6496 15.9882 27.9793C15.7731 28.309 15.5336 28.6158 15.4559 28.6611C15.3215 28.7394 15.3104 28.7773 15.2287 29.431C15.1815 29.8092 15.0003 30.8088 14.8261 31.6524C14.4679 33.3872 14.4452 33.4479 13.676 34.7348C13.1477 35.6189 12.597 36.3869 11.9311 37.1682C11.5596 37.6042 11.3637 37.9001 11.0948 38.4314C10.9017 38.8131 10.7084 39.243 10.6652 39.3867L10.5866 39.6481L10.9072 39.774C11.2436 39.9062 11.4722 40.1362 11.3957 40.2656C11.3709 40.3077 11.3748 40.3853 11.4045 40.438C11.4811 40.5745 11.0381 40.8452 10.7532 40.836C10.5036 40.8279 10.4984 40.8525 10.6082 41.5215C10.7093 42.1382 10.9179 42.4536 11.2997 42.5674C11.6281 42.6652 12.4472 43.0828 12.6139 43.2374C12.7504 43.364 12.6982 43.454 12.5075 43.4207C12.4035 43.4026 12.3486 43.4419 12.2697 43.5912C12.1289 43.8575 11.9411 43.9269 11.57 43.8502C11.4016 43.8153 11.1544 43.788 11.0208 43.7895C10.7017 43.793 9.90911 43.4714 9.74943 43.2736C9.67062 43.176 9.63677 43.0416 9.64555 42.8613C9.6527 42.7142 9.54637 42.0481 9.40926 41.381C9.13447 40.0441 8.99016 38.9268 8.93482 37.7074C8.89182 36.7593 8.94421 36.3942 9.171 36.0625C9.71913 35.261 9.97035 34.5829 10.1414 33.4435L10.2642 32.6254L10.1115 32.0891C10.0275 31.7941 9.80791 31.1958 9.62348 30.7594C9.43903 30.3231 9.26534 29.9015 9.2375 29.8226C9.20651 29.7347 9.22973 29.3611 9.29739 28.8588C9.38665 28.1959 9.39411 27.9697 9.33614 27.6794C9.22943 27.1445 9.15951 27.0987 8.33764 27.0245C7.96319 26.9907 7.63392 26.9447 7.6059 26.9222C7.57788 26.8996 7.46979 26.874 7.36573 26.865C7.26166 26.8562 7.10012 26.7916 7.00683 26.7216C6.91349 26.6516 6.55534 26.5075 6.21095 26.4015C5.64237 26.2264 5.29604 26.0512 5.26509 25.9228C5.25139 25.8659 4.94745 25.5514 4.89774 25.5427C4.85816 25.5358 4.50685 25.1414 4.36002 24.9392C4.15898 24.6621 3.93776 24.1961 3.8169 23.795C3.74869 23.5687 3.66083 23.3105 3.62166 23.2213C3.58243 23.132 3.55424 22.929 3.55894 22.7704C3.56364 22.6117 3.54647 22.3253 3.52078 22.1341C3.49504 21.9428 3.49335 21.7738 3.51701 21.7584C3.54066 21.7431 3.773 21.7063 4.03326 21.6767C4.94984 21.5722 5.21319 21.7856 5.56643 22.9192C5.89316 23.9679 6.17222 24.2926 7.00711 24.5956C7.73734 24.8605 8.93068 24.8943 9.14903 24.6563C9.20953 24.5903 9.47628 24.3579 9.7417 24.14C10.2777 23.6998 10.9114 23.145 11.3407 22.74C11.7094 22.3922 12.3754 21.8107 12.7777 21.4854C12.954 21.3429 13.2207 21.0905 13.3705 20.9244C13.5204 20.7582 13.9114 20.3723 14.2396 20.0668C14.5678 19.7613 14.9514 19.3425 15.0921 19.1362C15.2327 18.9299 15.4779 18.638 15.6368 18.4875C15.8647 18.2717 15.9458 18.1465 16.0208 17.8949C16.0731 17.7194 16.183 17.4661 16.265 17.332C16.3469 17.1979 16.4489 16.9863 16.4915 16.8618C16.5634 16.6521 16.8798 15.9946 17.2903 15.2023C17.3843 15.0208 17.5325 14.6284 17.6196 14.3303C17.9362 13.2465 17.9602 13.2028 18.5049 12.7178C18.7061 12.5387 18.7062 12.5385 18.7128 12.1062C18.7196 11.6671 18.6745 10.3684 18.6086 9.106C18.5767 8.49473 18.5896 8.33621 18.7146 7.80287C18.7956 7.4574 18.9387 7.0301 19.0466 6.81141C19.1796 6.54192 19.2941 6.16866 19.4301 5.5615C19.6415 4.61784 19.7179 4.4683 20.2928 3.87206C20.4239 3.73621 20.5793 3.53215 20.6381 3.41872C20.7865 3.1326 20.9047 3.05039 21.2427 2.99824C21.4034 2.9734 21.6091 2.91239 21.6998 2.8626C21.8232 2.7948 21.9112 2.78969 22.0501 2.84217C22.1598 2.88363 22.3711 2.89663 22.5678 2.87392C22.8459 2.84185 24.0077 2.92031 24.5426 3.00728C24.6278 3.02114 24.7365 3.10319 24.8 3.2017Z" fill="#E4E4E4"/>
<path fill-rule="evenodd" clip-rule="evenodd" d="M104.806 0.207349C104.156 0.643937 103.509 1.51671 103.171 2.4135C103.018 2.82067 103 2.96398 103 3.7792C103 4.59442 103.018 4.73772 103.171 5.14489C103.44 5.86033 103.747 6.31399 104.364 6.90663C105.541 8.03922 107.316 8.82827 109.921 9.37692C110.939 9.59134 111.114 9.65125 111.172 9.80541C111.191 9.85649 111.164 10.1078 111.111 10.3639C110.964 11.0734 110.823 12.4634 110.776 13.6633C110.747 14.4109 110.704 14.8051 110.635 14.9452C110.581 15.0566 110.128 15.5727 109.629 16.0922C108.496 17.2709 108.382 17.4739 108.252 18.5329C108.137 19.471 108.126 20.6382 108.228 21.1172C108.323 21.5685 108.543 21.8247 108.916 21.92C109.722 22.1255 110.168 21.9327 110.18 21.3735C110.188 21.0181 110.051 20.8186 109.694 20.6659L109.469 20.5691L109.51 20.0742C109.558 19.4989 109.758 18.9065 109.971 18.7078C110.053 18.6313 110.611 18.3204 111.212 18.0169C112.109 17.5633 112.318 17.481 112.387 17.5546C112.432 17.6038 112.694 17.9187 112.967 18.2544C113.532 18.9475 114.034 19.4059 114.51 19.6613C114.945 19.8954 115.701 19.9137 115.973 19.6968C116.409 19.3493 115.946 18.7595 115.235 18.7559C115.006 18.7548 114.949 18.7133 114.609 18.3005C114.044 17.6123 114.04 17.5986 114.258 17.1622C114.359 16.9589 114.646 16.5439 114.895 16.2399C115.772 15.1681 116.202 14.6043 116.394 14.2725C116.556 13.9928 116.637 13.9228 116.88 13.8516C117.673 13.6189 119.711 13.626 121.103 13.8661C122.053 14.0301 122.095 14.0559 122.467 14.7135C122.645 15.0265 122.974 15.5494 123.199 15.8755C123.424 16.2016 123.609 16.4859 123.609 16.5073C123.609 16.5287 123.372 16.7991 123.084 17.1081C122.501 17.7311 122.238 18.1888 122.306 18.4611C122.375 18.7428 122.638 18.9596 122.908 18.9596C123.494 18.9596 124.472 18.144 124.871 17.3245C125.056 16.9435 125.082 16.8208 125.081 16.3472C125.08 15.9675 125.039 15.6973 124.944 15.4429C124.869 15.2434 124.808 15.0553 124.808 15.025C124.808 14.8949 125.432 15.5041 125.819 16.0121C126.05 16.3159 126.374 16.697 126.539 16.8589C126.704 17.0208 127.948 17.8983 129.304 18.8089C130.659 19.7194 131.856 20.57 131.964 20.699C132.491 21.3333 133.765 21.4503 133.907 20.8776C134.046 20.3173 133.746 19.9479 132.579 19.2414C131.858 18.8047 131.474 18.5091 130.22 17.4256C129.081 16.4409 128.836 16.1587 128.784 15.7711C128.76 15.5967 128.769 15.3043 128.803 15.1213C128.878 14.7185 129.714 12.5389 129.817 12.4739C129.918 12.4108 130.071 12.4726 130.27 12.6569C130.531 12.8989 130.727 12.9424 131.386 12.9042C131.817 12.8794 132.026 12.8385 132.084 12.7674C132.164 12.6709 132.562 11.5475 132.77 10.8318C132.824 10.6475 132.868 10.3135 132.868 10.0897L132.868 9.68269L133.434 9.38994C133.745 9.22896 134 9.07662 134 9.05145C134 9.02629 133.753 8.91834 133.45 8.81154C133.148 8.70473 132.877 8.59584 132.847 8.56959C132.818 8.54335 132.858 8.41111 132.937 8.27577L133.081 8.02971L132.758 8.02836C132.271 8.02634 131.543 7.90645 131.169 7.76685C130.678 7.58354 130.292 7.54522 129.735 7.62416C129.031 7.72401 128.502 7.91103 127.474 8.42481L126.576 8.87307L125.942 8.86942C125.421 8.86639 125.211 8.83144 124.774 8.67498C124.144 8.44923 123.273 8.01716 122.443 7.51823C121.706 7.07544 121.118 6.84753 120.247 6.66712C119.668 6.54723 119.423 6.53373 118.413 6.56592C116.889 6.61463 115.943 6.8198 114.117 7.49819C113.532 7.71531 113.492 7.72077 112.485 7.7172C111.395 7.71335 110.89 7.6303 109.621 7.24613C108.823 7.00487 106.766 6.17332 106.242 5.8803C105.241 5.32126 104.671 4.52486 104.683 3.69999C104.693 2.94643 104.913 2.45466 105.682 1.45734C105.897 1.17889 105.982 1.00085 106.007 0.778402C106.038 0.502659 106.02 0.45651 105.806 0.238924C105.501 -0.0697439 105.232 -0.0781776 104.806 0.207349Z" fill="#E4E4E4"/>
</svg>
